<?xml version="1.0" encoding="utf-8"?>
<!-- Generator: Adobe Illustrator 13.0.1, SVG Export Plug-In . SVG Version: 6.00 Build 14948)  -->
<!DOCTYPE svg PUBLIC "-//W3C//DTD SVG 1.0//EN" "http://www.w3.org/TR/2001/REC-SVG-20010904/DTD/svg10.dtd">
<svg version="1.0" id="Слой_1" xmlns="http://www.w3.org/2000/svg" xmlns:xlink="http://www.w3.org/1999/xlink" x="0px" y="0px"
	 width="94px" height="94px" viewBox="0 0 94 94" enable-background="new 0 0 94 94" xml:space="preserve">
<g>
	<defs>
		<rect id="SVGID_1_" width="94" height="94"/>
	</defs>
	<clipPath id="SVGID_2_">
		<use xlink:href="#SVGID_1_"  overflow="visible"/>
	</clipPath>
	<path clip-path="url(#SVGID_2_)" fill="#03C4EB" d="M94,47c0,25.957-21.043,47-47,47S0,72.957,0,47S21.043,0,47,0S94,21.043,94,47"
		/>
	<path clip-path="url(#SVGID_2_)" fill="#FFFFFF" d="M68.877,80.666L47,69.164L25.125,80.666l4.177-24.361L11.603,39.052
		l24.46-3.553L47,13.334l10.938,22.165l24.459,3.553L64.699,56.305L68.877,80.666z M21.175,42.163l12.913,12.586l-3.048,17.773
		L47,64.131l15.96,8.392l-3.049-17.773l12.913-12.586L54.98,39.57L47,23.4l-7.98,16.17L21.175,42.163z"/>
</g>
</svg>
