<?xml version="1.0" encoding="utf-8"?>
<!-- Generator: Adobe Illustrator 13.0.1, SVG Export Plug-In . SVG Version: 6.00 Build 14948)  -->
<!DOCTYPE svg PUBLIC "-//W3C//DTD SVG 1.0//EN" "http://www.w3.org/TR/2001/REC-SVG-20010904/DTD/svg10.dtd">
<svg version="1.0" id="Слой_1" xmlns="http://www.w3.org/2000/svg" xmlns:xlink="http://www.w3.org/1999/xlink" x="0px" y="0px"
	 width="94px" height="94px" viewBox="0 0 94 94" enable-background="new 0 0 94 94" xml:space="preserve">
<g>
	<defs>
		<rect id="SVGID_1_" width="94" height="94"/>
	</defs>
	<clipPath id="SVGID_2_">
		<use xlink:href="#SVGID_1_"  overflow="visible"/>
	</clipPath>
	<path clip-path="url(#SVGID_2_)" fill="#03C4EB" d="M94,47c0,25.957-21.043,47-47,47S0,72.957,0,47S21.043,0,47,0S94,21.043,94,47"
		/>
	<path clip-path="url(#SVGID_2_)" fill="#FFFFFF" d="M23.917,35.138c3.349-5.105,8.57-8.873,14.672-10.354
		c0.474-0.107,0.859-0.443,1.045-0.893c0.182-0.448,0.138-0.954-0.123-1.365c-1.955-3.116-5.408-5.19-9.36-5.19
		c-6.106,0-11.062,4.948-11.062,11.056c0,2.595,0.899,4.975,2.392,6.86c0.297,0.381,0.758,0.588,1.247,0.564
		C23.209,35.796,23.651,35.543,23.917,35.138"/>
	<path clip-path="url(#SVGID_2_)" fill="#FFFFFF" d="M63.848,17.336c-3.931,0-7.38,2.056-9.336,5.149
		c-0.265,0.414-0.31,0.919-0.126,1.375c0.183,0.449,0.576,0.785,1.051,0.893c6.12,1.441,11.36,5.183,14.733,10.276
		c0.272,0.406,0.715,0.655,1.202,0.674c0.487,0.018,0.949-0.203,1.247-0.584c1.431-1.86,2.292-4.189,2.292-6.72
		C74.904,22.283,69.955,17.336,63.848,17.336"/>
	<path clip-path="url(#SVGID_2_)" fill="#FFFFFF" d="M71.448,51.208c0-4.273-1.107-8.284-3.044-11.779
		c-3.588-6.467-10.037-11.113-17.62-12.277c-1.208-0.184-2.437-0.311-3.703-0.311c-1.315,0-2.594,0.134-3.859,0.336
		c-7.552,1.215-13.97,5.879-17.519,12.353c-1.899,3.468-2.988,7.449-2.988,11.678c0,7.241,3.197,13.735,8.221,18.197l-3.167,5.107
		l4.513,3.195l3.168-5.102c3.454,1.892,7.424,2.969,11.631,2.969c4.217,0,8.178-1.077,11.64-2.969l3.061,4.769l4.513-3.196
		l-3.066-4.773C68.259,64.943,71.448,58.449,71.448,51.208 M47.081,68.759c-9.676,0-17.551-7.874-17.551-17.551
		c0-3.019,0.768-5.86,2.115-8.343c2.558-4.722,7.228-8.126,12.734-8.981c0.886-0.137,1.785-0.232,2.702-0.232
		c0.873,0,1.723,0.088,2.558,0.209c5.551,0.816,10.272,4.213,12.86,8.96c1.361,2.495,2.139,5.35,2.139,8.387
		C64.638,60.885,56.766,68.759,47.081,68.759"/>
	<path clip-path="url(#SVGID_2_)" fill="#FFFFFF" d="M56.917,55.316l-6.696-4.14c-0.14-0.778-0.563-1.456-1.157-1.937l0.31-8.401
		l-3.887-0.143l-0.308,8.411c-0.83,0.589-1.374,1.55-1.374,2.646c0,1.79,1.448,3.24,3.24,3.24c0.506,0,0.979-0.127,1.411-0.336
		l6.424,3.962L56.917,55.316z"/>
</g>
</svg>
