<?xml version="1.0" encoding="utf-8"?>
<!-- Generator: Adobe Illustrator 13.0.1, SVG Export Plug-In . SVG Version: 6.00 Build 14948)  -->
<!DOCTYPE svg PUBLIC "-//W3C//DTD SVG 1.0//EN" "http://www.w3.org/TR/2001/REC-SVG-20010904/DTD/svg10.dtd">
<svg version="1.0" id="Слой_1" xmlns="http://www.w3.org/2000/svg" xmlns:xlink="http://www.w3.org/1999/xlink" x="0px" y="0px"
	 width="94px" height="94px" viewBox="0 0 94 94" enable-background="new 0 0 94 94" xml:space="preserve">
<g>
	<defs>
		<rect id="SVGID_1_" width="94" height="94"/>
	</defs>
	<clipPath id="SVGID_2_">
		<use xlink:href="#SVGID_1_"  overflow="visible"/>
	</clipPath>
	<path clip-path="url(#SVGID_2_)" fill="#03C4EB" d="M94,47c0,25.957-21.043,47-47,47S0,72.957,0,47S21.043,0,47,0S94,21.043,94,47"
		/>
	<path clip-path="url(#SVGID_2_)" fill="#FFFFFF" d="M60.601,25.213c-0.187-0.179-0.412-0.314-0.662-0.396l-14.817-4.651
		c-5.926-1.863-9.779,1.385-10.82,2.426c-0.604,0.604-1.071,1.25-1.305,1.805l-6.604,15.529c-0.378,0.887-0.249,2.072,0.339,3.248
		c0.855,1.684,2.387,2.902,4.208,3.337c2.049,0.493,4.168-0.177,5.829-1.828c0.436-0.436,0.807-0.921,1.024-1.323l2.218-4.12
		c0.362-0.676,0.895-1.386,1.45-1.944c1.911-1.9,2.814-1.031,3.193-0.66c3.322,3.201,20.727,20.688,20.727,20.688
		c0.621,0.61,0.492,1.79-0.282,2.563c-0.773,0.767-1.942,0.901-2.563,0.28l-4.894-4.885c-0.629-0.627-1.645-0.627-2.273,0
		c-0.637,0.631-0.637,1.646,0,2.274l4.886,4.895c0.62,0.621,0.492,1.79-0.282,2.563c-0.773,0.773-1.951,0.903-2.563,0.282
		l-4.894-4.886c-0.63-0.628-1.645-0.628-2.273,0c-0.629,0.627-0.629,1.643,0,2.282l4.886,4.883c0.62,0.623,0.483,1.79-0.283,2.563
		c-0.773,0.774-1.942,0.905-2.563,0.284l-4.894-4.885c-0.629-0.631-1.644-0.631-2.273,0c-0.629,0.628-0.629,1.653,0,2.273
		l4.885,4.894c0.621,0.618,0.492,1.797-0.282,2.563c-0.773,0.773-1.951,0.9-2.563,0.287l-5.958-5.955
		c0.855-1.281,0.621-3.139-0.644-4.401c-1.411-1.413-3.58-1.54-4.837-0.284c1.257-1.256,1.128-3.432-0.282-4.843
		c-1.419-1.411-3.588-1.543-4.846-0.282c1.258-1.261,1.129-3.427-0.29-4.846c-1.411-1.411-3.579-1.54-4.845-0.284
		c1.266-1.256,1.136-3.427-0.283-4.843c-1.321-1.322-3.297-1.509-4.579-0.5l-9.642-9.643c-0.628-0.63-1.653-0.63-2.282,0
		c-0.62,0.627-0.62,1.652,0,2.281l9.619,9.616l-2.846,2.855c-1.258,1.25-1.137,3.424,0.282,4.837
		c1.419,1.417,3.58,1.548,4.845,0.282c-1.265,1.266-1.137,3.435,0.282,4.843c1.411,1.422,3.588,1.549,4.846,0.293
		c-1.258,1.256-1.129,3.427,0.282,4.838c1.418,1.419,3.587,1.548,4.845,0.287c-1.258,1.261-1.129,3.427,0.282,4.849
		c1.419,1.41,3.587,1.54,4.845,0.281l3.016-3.016l5.909,5.918c1.886,1.887,5.079,1.75,7.126-0.293
		c0.992-0.988,1.524-2.263,1.597-3.521c1.258-0.071,2.531-0.605,3.531-1.604c0.991-0.994,1.523-2.267,1.604-3.521
		c1.258-0.073,2.522-0.613,3.522-1.605c1-0.999,1.532-2.266,1.605-3.523c1.257-0.074,2.53-0.604,3.521-1.604
		c2.048-2.048,2.169-5.241,0.283-7.127l-2.491-2.491L75.41,42.312c0.628-0.63,0.628-1.646,0-2.273L60.601,25.213z"/>
	<path clip-path="url(#SVGID_2_)" fill="#FFFFFF" d="M84.858,28.815L71.813,15.772c-1.265-1.259-3.305-1.259-4.563,0l-4.563,4.555
		c-1.257,1.264-1.257,3.304,0,4.563L75.74,37.934c1.258,1.257,3.297,1.257,4.555,0l4.563-4.555
		C86.115,32.123,86.115,30.074,84.858,28.815 M78.014,35.459c-1.459,0-2.652-1.179-2.652-2.644c0-1.461,1.193-2.646,2.652-2.646
		s2.644,1.185,2.644,2.646C80.657,34.274,79.473,35.459,78.014,35.459"/>
</g>
</svg>
