<?xml version="1.0" encoding="UTF-8"?>
<!DOCTYPE svg PUBLIC "-//W3C//DTD SVG 1.1//EN" "http://www.w3.org/Graphics/SVG/1.1/DTD/svg11.dtd">
<!-- Creator: CorelDRAW X5 -->
<svg xmlns="http://www.w3.org/2000/svg" xml:space="preserve" width="47.7178mm" height="7.6392mm" style="shape-rendering:geometricPrecision; text-rendering:geometricPrecision; image-rendering:optimizeQuality; fill-rule:evenodd; clip-rule:evenodd"
viewBox="0 0 4724 756"
 xmlns:xlink="http://www.w3.org/1999/xlink">
 <defs>
  <style type="text/css">
   <![CDATA[
    .fil1 {fill:#03C4EB}
    .fil2 {fill:fuchsia}
    .fil0 {fill:yellow}
   ]]>
  </style>
 </defs>
 <g id="Слой_x0020_1">
  <metadata id="CorelCorpID_0Corel-Layer"/>
  <g id="_157201880">
   <path class="fil0" d="M1200 552c-2,-16 -5,-52 -19,-55l0 0c0,0 0,0 0,0 0,0 0,0 0,0 0,0 0,0 0,0 0,0 0,0 0,0l0 0c-15,-1 -27,33 -33,48 -7,16 -14,30 -8,47 4,11 14,18 25,20l0 0c0,0 0,0 0,0 0,0 0,0 0,0l0 0c11,1 23,-3 30,-13 11,-15 7,-31 5,-48z"/>
   <path class="fil0" d="M1258 516c-13,-9 -40,-33 -53,-25l0 0c0,0 0,0 0,0 0,0 0,0 0,0 0,0 0,0 0,0 0,0 0,0 0,0l0 0c-11,10 5,43 11,57 6,16 11,31 28,39 10,5 23,2 32,-4l0 0c0,0 0,0 0,0 0,0 0,0 0,0l0 0c9,-7 14,-18 12,-30 -3,-18 -17,-27 -30,-37z"/>
   <path class="fil0" d="M1097 479c16,-2 52,-5 55,-19l0 0c0,0 0,0 0,0 0,0 0,0 0,0 0,0 0,0 0,0 0,0 0,0 0,0l0 0c1,-15 -33,-27 -48,-33 -16,-7 -30,-14 -47,-8 -11,4 -18,14 -20,25l0 0c0,0 0,0 0,0 0,0 0,0 0,0l0 0c-1,11 3,23 13,30 15,11 31,7 48,5z"/>
   <path class="fil0" d="M1133 537c9,-13 33,-40 25,-53l0 0c0,0 0,0 0,0 0,0 0,0 0,0 0,0 0,0 0,0 0,0 0,0 0,0l0 0c-10,-11 -43,5 -57,11 -16,6 -31,11 -39,28 -5,10 -2,23 4,32l0 0c0,0 0,0 0,0 0,0 0,0 0,0l0 0c7,9 18,14 30,12 18,-3 27,-17 37,-30z"/>
  </g>
  <g id="_157202576">
   <path class="fil1" d="M3140 469c-13,9 -41,31 -54,23l0 0c0,0 0,0 0,0 0,0 0,0 0,0 0,0 0,0 0,0 0,0 0,0 0,0l0 0c-11,-11 7,-42 13,-57 7,-15 13,-31 30,-38 11,-4 23,-1 32,6l0 0c0,0 0,0 0,0 0,0 0,0 0,0l0 0c8,8 13,19 11,30 -4,18 -18,26 -32,36z"/>
   <path class="fil1" d="M3152 537c-16,-3 -51,-7 -54,-22l0 0c0,0 0,0 0,0 0,0 0,0 0,0 0,0 0,0 0,0 0,0 0,0 0,0l0 0c0,-15 35,-25 50,-31 16,-6 31,-13 48,-5 11,4 17,15 19,26l0 0c0,0 0,0 0,0 0,0 0,0 0,0l0 0c0,12 -4,23 -14,29 -16,10 -32,6 -48,3z"/>
   <path class="fil1" d="M3016 443c9,13 31,41 23,54l0 0c0,0 0,0 0,0 0,0 0,0 0,0 0,0 0,0 0,0 0,0 0,0 0,0l0 0c-11,11 -42,-7 -57,-13 -15,-7 -31,-13 -38,-30 -4,-11 -1,-23 6,-32l0 0c0,0 0,0 0,0 0,0 0,0 0,0l0 0c8,-8 19,-13 30,-11 18,4 26,18 36,32z"/>
   <path class="fil1" d="M3084 431c-3,16 -7,51 -22,54l0 0c0,0 0,0 0,0 0,0 0,0 0,0 0,0 0,0 0,0 0,0 0,0 0,0l0 0c-15,0 -25,-35 -31,-50 -6,-16 -13,-31 -5,-48 4,-11 15,-17 26,-19l0 0c0,0 0,0 0,0 0,0 0,0 0,0l0 0c12,0 23,4 29,14 10,16 6,32 3,48z"/>
  </g>
  <path class="fil1" d="M2163 748l-250 0 0 -116 61 0 0 -173c0,-26 -10,-48 -29,-67 -19,-18 -42,-28 -69,-28 -28,0 -52,9 -72,28 -20,18 -29,41 -29,67l0 173 59 0 0 116 -249 0 0 -116 60 0 0 -261 -61 0 0 -116 185 0 0 57c16,-16 38,-32 66,-47 28,-15 53,-22 78,-22 26,0 51,5 74,15 23,10 44,24 61,42 17,18 31,38 41,62 10,24 15,49 15,76l0 195 59 0 0 116z"/>
  <path class="fil2" d="M3541 628l0 -261 -61 0 0 -116 185 0 0 57c11,-17 28,-33 51,-47 23,-14 46,-22 69,-22l24 0 0 122 -24 0c-31,0 -58,13 -81,38 -22,25 -33,56 -33,91l0 139 61 0 0 116 -252 0 0 -116 61 0z"/>
  <path class="fil1" d="M4724 744l-250 0 0 -116 61 0 0 -173c0,-26 -10,-48 -28,-67 -19,-18 -42,-28 -69,-28 -28,0 -52,9 -72,28 -20,18 -29,41 -29,67l0 173 59 0 0 116 -249 0 0 -116 60 0 0 -261 -61 0 0 -116 185 0 0 57c16,-16 38,-32 66,-47 28,-15 53,-22 78,-22 26,0 51,5 74,15 23,10 44,24 61,42 17,18 31,38 41,62 10,24 15,49 15,76l0 195 59 0 0 116 0 0 0 0z"/>
  <path class="fil2" d="M1333 294c0,-13 0,-26 0,-39 66,0 131,0 197,0 0,35 0,70 0,104 -27,0 -53,0 -80,0 -2,90 0,184 -1,275 25,2 54,0 81,1 0,36 0,71 0,107 -66,0 -131,0 -197,0 0,-13 0,-26 0,-39 -32,20 -64,37 -106,46 -44,9 -92,5 -132,-7 -69,-22 -129,-79 -157,-148 -33,-83 -18,-173 25,-238 39,-59 106,-109 195,-114 79,-5 130,22 175,53zm-265 75c-27,22 -40,41 -51,74 -52,150 106,271 235,203 49,-26 93,-82 87,-162 -3,-44 -27,-83 -48,-103 -29,-29 -75,-52 -133,-47 -40,4 -67,18 -90,36z"/>
  <path class="fil0" d="M2731 637l0 -548 -191 0 0 113 63 0 0 100c-2,-2 -5,-4 -7,-6 0,0 0,1 0,1 -45,-32 -96,-58 -175,-53 -90,5 -156,55 -195,114 -43,64 -57,155 -25,238 28,69 88,126 157,148 40,13 88,16 132,7 41,-8 72,-25 103,-44 3,-2 6,-5 9,-7l0 48 188 0 0 -110 -60 0 0 0zm-217 11c-129,68 -286,-53 -235,-203 11,-32 25,-52 51,-74 23,-18 49,-33 90,-36 59,-5 104,18 133,47 21,21 45,59 48,103 6,80 -39,136 -87,162z"/>
  <g id="_157206200">
   <rect class="fil0" x="3907" y="617" width="130" height="124"/>
   <rect class="fil0" x="3906" y="80" width="131" height="497"/>
  </g>
  <path class="fil1" d="M61 630l0 -261 -61 0 0 -116 185 0 0 57c6,-9 14,-18 25,-26 11,-8 23,-16 36,-22 13,-7 27,-12 41,-15 14,-4 28,-5 41,-5 29,0 58,8 87,25 29,17 51,38 66,62 6,-12 15,-23 27,-34 12,-11 26,-20 41,-28 15,-8 32,-14 49,-19 17,-5 35,-7 52,-7 26,0 51,5 73,15 23,10 42,24 59,42 17,18 30,38 40,62 10,24 15,49 15,76l0 195 61 0 0 116 -252 0 0 -116 61 0 0 -173c0,-26 -9,-48 -27,-66 -18,-19 -40,-28 -66,-28 -27,0 -50,8 -70,25 -20,17 -30,37 -30,59l0 183 61 0 0 116 -252 0 0 -116 61 0 0 -183c0,-23 -9,-43 -28,-59 -19,-17 -40,-25 -65,-25 -28,0 -51,9 -71,27 -20,18 -29,39 -29,63l0 178 61 0 0 116 -252 0 0 -116 61 0 0 0z"/>
  <path class="fil0" d="M3232 295c0,-13 0,-26 0,-39 66,0 131,0 197,0 0,35 0,70 0,104 -27,0 -53,0 -80,0 -2,90 0,184 -1,275 25,2 54,0 81,1 0,36 0,71 0,107 -66,0 -131,0 -197,0 0,-13 0,-26 0,-39 -32,20 -64,37 -106,46 -44,9 -92,5 -132,-7 -69,-22 -129,-79 -157,-148 -33,-83 -18,-173 25,-238 39,-59 106,-109 195,-114 79,-5 130,22 175,53zm-265 75c-27,22 -40,41 -51,74 -52,150 106,271 235,203 49,-26 93,-82 87,-162 -3,-44 -27,-83 -48,-103 -29,-29 -75,-52 -133,-47 -40,4 -67,18 -90,36z"/>
  <path class="fil0" d="M1495 0l0 0c-7,0 -43,-1 -76,2 -42,3 -83,36 -104,78 -20,39 -15,109 -14,120l0 0c11,1 82,4 120,-18 41,-23 73,-64 75,-107 2,-33 0,-69 0,-76z"/>
 </g>
</svg>
