<svg xmlns="http://www.w3.org/2000/svg" width="52.926" height="52.926" viewBox="0 0 1417 1417" shape-rendering="geometricPrecision" text-rendering="geometricPrecision" image-rendering="optimizeQuality" fill-rule="evenodd" clip-rule="evenodd"><defs><style>.fil1{fill:#00a0e3}</style></defs><g id="Слой_x0020_1"><path fill="none" d="M0 0h1417v1417H0z"/><path class="fil1" d="M416 1124l708-708c15-15 16-39 2-54l-71-71c-14-14-38-14-54 2l-708 708c-15 15-16 39-2 54l71 71c14 14 38 13 54-2z"/><path class="fil1" d="M1001 1124L293 416c-15-15-16-39-2-54l71-71c14-14 38-14 54 2l708 708c15 15 16 39 2 54l-71 71c-14 14-38 13-54-2z"/></g></svg>