<?xml version="1.0" encoding="utf-8"?>
<!-- Generator: Adobe Illustrator 13.0.1, SVG Export Plug-In . SVG Version: 6.00 Build 14948)  -->
<!DOCTYPE svg PUBLIC "-//W3C//DTD SVG 1.0//EN" "http://www.w3.org/TR/2001/REC-SVG-20010904/DTD/svg10.dtd">
<svg version="1.0" id="Слой_1" xmlns="http://www.w3.org/2000/svg" xmlns:xlink="http://www.w3.org/1999/xlink" x="0px" y="0px"
	 width="94px" height="94px" viewBox="0 0 94 94" enable-background="new 0 0 94 94" xml:space="preserve">
<g>
	<defs>
		<rect id="SVGID_1_" width="94" height="94"/>
	</defs>
	<clipPath id="SVGID_2_">
		<use xlink:href="#SVGID_1_"  overflow="visible"/>
	</clipPath>
	<path clip-path="url(#SVGID_2_)" fill="#03C4EB" d="M94,47c0,25.957-21.043,47-47,47S0,72.957,0,47S21.043,0,47,0S94,21.043,94,47"
		/>
	<path clip-path="url(#SVGID_2_)" fill="#FFFFFF" d="M30.312,19.427c0,3.75-3.042,6.788-6.788,6.788
		c-3.75,0-6.787-3.038-6.787-6.788s3.037-6.788,6.787-6.788C27.27,12.639,30.312,15.677,30.312,19.427"/>
	<path clip-path="url(#SVGID_2_)" fill="#FFFFFF" d="M15.949,50.002h0.675v13.463c0,1.853,1.513,3.367,3.363,3.367h7.068
		c1.853,0,3.369-1.515,3.369-3.367V62.68c-0.621-1.178-1.012-2.523-1.012-3.926V41.138c0-3.421,2.077-6.395,5.049-7.686v-1.345
		c0-1.851-1.515-3.367-3.366-3.367H15.949c-1.852,0-3.366,1.516-3.366,3.367v14.529C12.583,48.487,14.039,50.002,15.949,50.002"/>
	<path clip-path="url(#SVGID_2_)" fill="#FFFFFF" d="M77.322,19.427c0,3.75-3.042,6.788-6.788,6.788
		c-3.75,0-6.788-3.038-6.788-6.788s3.038-6.788,6.788-6.788C74.28,12.639,77.322,15.677,77.322,19.427"/>
	<path clip-path="url(#SVGID_2_)" fill="#FFFFFF" d="M59.538,32.05v1.348c2.973,1.29,5.049,4.261,5.049,7.683v17.562
		c0,1.402-0.336,2.747-1.011,3.924v0.786c0,1.853,1.515,3.367,3.366,3.367h7.07c1.849,0,3.362-1.515,3.362-3.367V49.89h0.675
		c1.852,0,3.366-1.514,3.366-3.366V32.05c0-1.852-1.515-3.367-3.366-3.367H62.904C61.053,28.683,59.538,30.198,59.538,32.05"/>
	<path clip-path="url(#SVGID_2_)" fill="#FFFFFF" d="M34.518,41.138v17.616c0,1.85,1.516,3.364,3.364,3.364h1.293v15.876
		c0,1.853,1.512,3.367,3.364,3.367h9.034c1.85,0,3.364-1.515,3.364-3.367V62.063h1.29c1.854,0,3.367-1.515,3.367-3.365V41.138
		c0-1.852-1.514-3.366-3.367-3.366H37.882C35.977,37.772,34.518,39.286,34.518,41.138"/>
	<path clip-path="url(#SVGID_2_)" fill="#FFFFFF" d="M54.824,27.169c0,4.308-3.489,7.798-7.796,7.798
		c-4.306,0-7.798-3.49-7.798-7.798c0-4.306,3.492-7.797,7.798-7.797C51.335,19.372,54.824,22.863,54.824,27.169"/>
</g>
</svg>
