<?xml version="1.0" encoding="utf-8"?>
<!-- Generator: Adobe Illustrator 13.0.1, SVG Export Plug-In . SVG Version: 6.00 Build 14948)  -->
<!DOCTYPE svg PUBLIC "-//W3C//DTD SVG 1.0//EN" "http://www.w3.org/TR/2001/REC-SVG-20010904/DTD/svg10.dtd">
<svg version="1.0" id="Слой_1" xmlns="http://www.w3.org/2000/svg" xmlns:xlink="http://www.w3.org/1999/xlink" x="0px" y="0px"
	 width="94px" height="94px" viewBox="0 0 94 94" enable-background="new 0 0 94 94" xml:space="preserve">
<g>
	<defs>
		<rect id="SVGID_1_" x="0" width="94" height="94"/>
	</defs>
	<clipPath id="SVGID_2_">
		<use xlink:href="#SVGID_1_"  overflow="visible"/>
	</clipPath>
	<path clip-path="url(#SVGID_2_)" fill="#03C4EB" d="M94,47c0,25.957-21.042,47-47,47C21.043,94,0,72.957,0,47S21.043,0,47,0
		C72.958,0,94,21.043,94,47"/>
	<path clip-path="url(#SVGID_2_)" fill="#FFFFFF" d="M86.956,38.127l-3.896,3.894L72.202,31.166l3.897-3.899
		c1.228-1.226,3.075-1.378,4.118-0.339l7.078,7.082C88.338,35.053,88.185,36.896,86.956,38.127 M70.392,32.974l10.856,10.86
		l-25.892,25.89c-0.117,0.118-0.445,0.446-0.909,0.567c-0.055,0.023-0.105,0.047-0.161,0.062l-13.51,4.306
		c-0.38,0.121-0.763,0.047-1.009-0.203c-0.246-0.245-0.323-0.625-0.203-1.004l4.304-13.512c0.02-0.055,0.04-0.109,0.067-0.16
		c0.118-0.465,0.446-0.793,0.566-0.914l4.868-4.863H32.935c-0.664,0-1.203-0.539-1.203-1.203c0-0.66,0.539-1.2,1.203-1.2h18.832
		L70.392,32.974z M52.017,68.889l-6.684-6.684l-1.793,5.63l2.852,2.847L52.017,68.889z M69.974,37.291
		c-0.382-0.387-1.007-0.387-1.39,0L48.401,57.474c-0.388,0.384-0.388,1.009,0,1.392c0.382,0.383,1.007,0.383,1.39,0l20.184-20.183
		C70.357,38.299,70.357,37.674,69.974,37.291 M68.756,75.713c0,0.722-0.586,1.309-1.31,1.309H43.631l-2.153,0.688
		c-0.429,0.137-0.875,0.207-1.32,0.207c-0.945,0-1.825-0.324-2.546-0.895H25.247c-0.717,0-1.308-0.587-1.308-1.309V20.756
		c0-0.719,0.587-1.309,1.308-1.309h4.908v2.074c0,0.723,0.586,1.309,1.312,1.309c0.722,0,1.309-0.586,1.309-1.309v-2.074h7.518
		v2.074c0,0.723,0.587,1.309,1.314,1.309c0.721,0,1.307-0.586,1.307-1.309v-2.074h6.54v2.074c0,0.723,0.586,1.309,1.313,1.309
		c0.724,0,1.308-0.586,1.308-1.309v-2.074h7.196v2.074c0,0.723,0.586,1.309,1.31,1.309c0.723,0,1.308-0.586,1.308-1.309v-2.074
		h5.563c0.719,0,1.305,0.59,1.305,1.309v9.066l3.925-3.926v-5.14c0-2.883-2.347-5.231-5.229-5.231h-5.563v-3.164
		c0-0.722-0.585-1.308-1.308-1.308c-0.724,0-1.31,0.586-1.31,1.308v3.164h-7.198v-3.164c0-0.722-0.586-1.308-1.31-1.308
		c-0.723,0-1.309,0.586-1.309,1.308v3.164h-6.543v-3.164c0-0.722-0.586-1.308-1.308-1.308c-0.722,0-1.309,0.586-1.309,1.308v3.164
		h-7.523v-3.164c0-0.722-0.586-1.308-1.308-1.308c-0.722,0-1.308,0.586-1.308,1.308v3.164h-4.908c-2.885,0-5.234,2.348-5.234,5.231
		v54.957c0,2.886,2.349,5.234,5.234,5.234h42.2c2.888,0,5.234-2.349,5.234-5.234V56.662l-3.925,3.926V75.713z M58.533,31.201H32.935
		c-0.664,0-1.203,0.535-1.203,1.199s0.539,1.199,1.203,1.199h25.598c0.664,0,1.199-0.535,1.199-1.199S59.197,31.201,58.533,31.201
		 M58.533,40.877H32.935c-0.664,0-1.203,0.535-1.203,1.199s0.539,1.199,1.203,1.199h25.598c0.664,0,1.199-0.535,1.199-1.199
		S59.197,40.877,58.533,40.877"/>
</g>
</svg>
