<?xml version="1.0" encoding="utf-8"?>
<!-- Generator: Adobe Illustrator 13.0.1, SVG Export Plug-In . SVG Version: 6.00 Build 14948)  -->
<!DOCTYPE svg PUBLIC "-//W3C//DTD SVG 1.0//EN" "http://www.w3.org/TR/2001/REC-SVG-20010904/DTD/svg10.dtd">
<svg version="1.0" id="Слой_1" xmlns="http://www.w3.org/2000/svg" xmlns:xlink="http://www.w3.org/1999/xlink" x="0px" y="0px"
	 width="94px" height="94px" viewBox="0 0 94 94" enable-background="new 0 0 94 94" xml:space="preserve">
<g>
	<defs>
		<rect id="SVGID_1_" width="94" height="94"/>
	</defs>
	<clipPath id="SVGID_2_">
		<use xlink:href="#SVGID_1_"  overflow="visible"/>
	</clipPath>
	<path clip-path="url(#SVGID_2_)" fill="#03C4EB" d="M94,47c0,25.957-21.043,47-47,47S0,72.957,0,47S21.043,0,47,0S94,21.043,94,47"
		/>
	<path clip-path="url(#SVGID_2_)" fill="#FFFFFF" d="M52.114,55.629l-1.313-1.314c-0.634-0.634-1.722-0.634-2.356,0l-7.53,7.495
		l-3.255-3.281c-0.634-0.635-1.722-0.635-2.357,0l-1.313,1.314c-0.634,0.634-0.634,1.722,0,2.356l5.754,5.8
		c0.635,0.635,1.723,0.635,2.357,0l1.314-1.314c0.068-0.067,0.128-0.142,0.181-0.22l8.519-8.48
		C52.75,57.351,52.75,56.263,52.114,55.629"/>
	<path clip-path="url(#SVGID_2_)" fill-rule="evenodd" clip-rule="evenodd" fill="#FFFFFF" d="M65.106,49.473
		c-3.204-6.238-8.031-10.854-15.004-13.323c-1.31-4.589-2.508-9.827-3.751-14.875c-0.413-1.679-1.173-3.355-1.164-4.914
		c0.02-3.154,2.323-5.461,5.044-5.821c5.523-0.731,6.408,3.933,7.503,7.89C60.529,28.539,62.428,39.583,65.106,49.473"/>
	<path clip-path="url(#SVGID_2_)" fill-rule="evenodd" clip-rule="evenodd" fill="#FFFFFF" d="M54.889,31.623
		c0.3,0.041,0.496-0.021,0.646-0.129c-0.021-0.194,0.046-0.478-0.129-0.518C55.468,31.426,55.082,31.428,54.889,31.623"/>
	<path clip-path="url(#SVGID_2_)" fill-rule="evenodd" clip-rule="evenodd" fill="#FFFFFF" d="M67.306,53.223
		c-0.775-1.269-0.833-2.812-1.164-4.269c-1.925-8.469-3.918-16.412-6.08-25.481c-0.302-1.271-1.18-3.335-1.034-4.268
		c0.292-1.865,4.26-3.527,6.985-2.328c1.416,0.623,3.161,2.669,3.233,4.786c0.087,2.533-0.366,5.344-0.518,8.148
		C68.344,36.96,67.487,45.765,67.306,53.223"/>
	<path clip-path="url(#SVGID_2_)" fill-rule="evenodd" clip-rule="evenodd" fill="#FFFFFF" d="M68.34,53.353
		c0.334-8.462,1.061-16.853,1.553-25.093c2.416,0.56,4.649,2.319,4.269,5.821c-0.157,1.437-0.892,3.2-1.424,4.915
		C71.369,43.41,69.522,49.442,68.34,53.353"/>
	<path clip-path="url(#SVGID_2_)" fill-rule="evenodd" clip-rule="evenodd" fill="#FFFFFF" d="M54.728,66.415
		c4.445-9.877-3.299-21.342-15.182-18.825c-1.432,0.304-2.778,1.392-4.615,1.215c-2.69-0.261-4.873-2.678-4.372-5.83
		c0.603-3.789,6.216-5.324,10.688-5.587c7.939-0.466,13.904,2.78,17.731,6.437c3.861,3.689,7.103,9.638,6.923,17.124
		c-0.166,6.953-3.08,12.588-7.53,16.641c-4.112,3.745-10.483,6.575-17.974,5.829c-9.159-0.912-16.421-7.271-19.19-14.817
		c-0.982-2.679-1.638-6.457-1.335-10.445c0.271-3.571,1.589-8.728,4.736-9.837c3.029-1.069,5.958,0.888,6.558,3.279
		c0.577,2.3-0.947,4.31-1.335,6.68c-1.49,9.071,6.041,15.814,13.845,15.304C49.116,73.224,51.961,70.476,54.728,66.415"/>
</g>
</svg>
