<?xml version="1.0" encoding="UTF-8"?>
<!DOCTYPE svg PUBLIC "-//W3C//DTD SVG 1.1//EN" "http://www.w3.org/Graphics/SVG/1.1/DTD/svg11.dtd">
<!-- Creator: CorelDRAW X5 -->
<svg xmlns="http://www.w3.org/2000/svg" xml:space="preserve" width="14.0033mm" height="14.0033mm" style="shape-rendering:geometricPrecision; text-rendering:geometricPrecision; image-rendering:optimizeQuality; fill-rule:evenodd; clip-rule:evenodd"
viewBox="0 0 1417 1417"
 xmlns:xlink="http://www.w3.org/1999/xlink">
 <defs>
  <style type="text/css">
   <![CDATA[
    .fil0 {fill:none}
    .fil1 {fill:#00A0E3}
   ]]>
  </style>
 </defs>
 <g id="Слой_x0020_1">
  <metadata id="CorelCorpID_0Corel-Layer"/>
  <rect class="fil0" width="1417" height="1417"/>
  <path class="fil1" d="M416 1124l708 -708c15,-15 16,-39 2,-54l-71 -71c-14,-14 -38,-14 -54,2l-708 708c-15,15 -16,39 -2,54l71 71c14,14 38,13 54,-2z"/>
  <path class="fil1" d="M1001 1124l-708 -708c-15,-15 -16,-39 -2,-54l71 -71c14,-14 38,-14 54,2l708 708c15,15 16,39 2,54l-71 71c-14,14 -38,13 -54,-2z"/>
 </g>
</svg>
